<svg width="133" height="133" viewBox="0 0 518 520" fill="none" xmlns="http://www.w3.org/2000/svg">
<g id="book 1" clip-path="url(#clip0)" filter="url(#filter0_d)">
<g id="Group">
<g id="Group_2">
<g id="Group_3">
<g id="Group_4">
<g id="blue2">
<path id="Vector" d="M485.953 504.488H102.663C71.3161 504.488 45.9038 479.075 45.9038 447.728C45.9038 416.382 71.3161 390.969 102.663 390.969H485.953V504.488Z" fill="#F0F5FA"/>
<path id="Vector_2" d="M445.888 390.97H485.953V504.488H445.888V390.97Z" fill="#E4ECF2"/>
<g id="Group_5">
<path id="Vector_3" d="M505.984 512H102.663C67.2245 512 38.3916 483.168 38.3916 447.728C38.3916 412.289 67.2235 383.457 102.663 383.457H505.985C510.134 383.457 513.498 386.82 513.498 390.969C513.498 395.118 510.134 398.481 505.985 398.481H102.663C75.5089 398.481 53.416 420.573 53.416 447.728C53.416 474.883 75.5079 496.975 102.663 496.975H505.985C510.134 496.975 513.498 500.339 513.498 504.488C513.498 508.636 510.134 512 505.984 512Z" fill="#6E9EFF"/>
</g>
<g id="Group_6">
<g id="Group_7">
<path id="Vector_4" d="M485.952 436.322H176.54C172.391 436.322 169.028 432.958 169.028 428.81C169.028 424.661 172.391 421.297 176.54 421.297H485.952V436.322Z" fill="#C5D7E6"/>
</g>
<g id="Group_8">
<path id="Vector_5" d="M485.952 474.161H258.694C254.545 474.161 251.181 470.798 251.181 466.649C251.181 462.5 254.545 459.137 258.694 459.137H485.952V474.161Z" fill="#C5D7E6"/>
</g>
</g>
</g>
</g>
<g id="Group_9">
<g id="green">
<path id="Vector_6" d="M421.708 375.988H48.7493C28.4624 375.988 12.0156 359.542 12.0156 339.254C12.0156 318.967 28.4614 302.521 48.7493 302.521H421.709V375.988H421.708Z" fill="#F0F5FA"/>
<path id="Vector_7" d="M381.643 302.521H421.708V375.988H381.643V302.521Z" fill="#E4ECF2"/>
<path id="Vector_8" d="M444.69 383.5H48.7493C24.3527 383.5 4.50342 363.652 4.50342 339.254C4.50342 314.857 24.3517 295.008 48.7493 295.008H444.69C448.838 295.008 452.202 298.372 452.202 302.521C452.202 306.669 448.838 310.033 444.69 310.033H48.7493C32.6371 310.033 19.5278 323.141 19.5278 339.254C19.5278 355.367 32.6361 368.476 48.7493 368.476H444.69C448.838 368.476 452.202 371.839 452.202 375.988C452.202 380.137 448.838 383.5 444.69 383.5Z" fill="#74D84B"/>
<g id="Group_10">
<g id="Group_11">
<path id="Vector_9" d="M421.708 348.327H316.222C312.073 348.327 308.71 344.963 308.71 340.815C308.71 336.666 312.073 333.302 316.222 333.302H421.708V348.327Z" fill="#C5D7E6"/>
</g>
</g>
</g>
</g>
<g id="Group_12">
<g id="blue">
<path id="Vector_10" d="M63.1968 204.103H509.825V295.009H63.1968V204.103Z" fill="#6E9EFF"/>
<path id="Vector_11" d="M373.436 204.103H509.825V295.009H373.436V204.103Z" fill="#BF6930"/>
<path id="Vector_12" d="M469.76 204.103H509.825V295.009H469.76V204.103Z" fill="#AD5F2C"/>
<path id="Vector_13" d="M216.848 264.58H114.673C106.376 264.58 99.6489 257.853 99.6489 249.556C99.6489 241.258 106.376 234.531 114.673 234.531H216.848C225.146 234.531 231.873 241.258 231.873 249.556C231.873 257.853 225.146 264.58 216.848 264.58Z" fill="#FFF5F5"/>
<g id="Group_13">
<path id="Vector_14" d="M466.42 257.068H417.508C413.359 257.068 409.995 253.704 409.995 249.556C409.995 245.407 413.359 242.043 417.508 242.043H466.42C470.569 242.043 473.932 245.407 473.932 249.556C473.932 253.704 470.57 257.068 466.42 257.068V257.068Z" fill="#FFF5F5"/>
</g>
</g>
</g>
<g id="yellow">
<g id="Group_14">
<path id="Vector_15" d="M19.7231 96.636H405.986V204.104H19.7231V96.636Z" fill="#FFDA45"/>
</g>
<path id="Vector_16" d="M362.916 96.636H405.986V204.104H362.916V96.636Z" fill="#FAC800"/>
<path id="Vector_17" d="M241.221 96.636H363.42V204.104H241.221V96.636Z" fill="#FFF5F5"/>
<g id="Group_15">
<g id="Group_16">
<path id="Vector_18" d="M329.698 167.228C325.549 167.228 322.186 163.864 322.186 159.716V141.023C322.186 136.874 325.549 133.511 329.698 133.511C333.846 133.511 337.21 136.874 337.21 141.023V159.716C337.21 163.864 333.847 167.228 329.698 167.228Z" fill="#677A8F"/>
</g>
<g id="Group_17">
<path id="Vector_19" d="M302.32 167.228C298.172 167.228 294.808 163.864 294.808 159.716V141.023C294.808 136.874 298.172 133.511 302.32 133.511C306.469 133.511 309.833 136.874 309.833 141.023V159.716C309.833 163.864 306.47 167.228 302.32 167.228Z" fill="#677A8F"/>
</g>
<g id="Group_18">
<path id="Vector_20" d="M274.943 167.228C270.794 167.228 267.431 163.864 267.431 159.716V141.023C267.431 136.874 270.794 133.511 274.943 133.511C279.092 133.511 282.455 136.874 282.455 141.023V159.716C282.455 163.864 279.092 167.228 274.943 167.228Z" fill="#677A8F"/>
</g>
</g>
</g>
</g>
<g id="red">
<path id="Vector_21" d="M136.263 7.51221H435.619C458.156 7.51221 476.424 25.7819 476.424 48.3175C476.424 70.8541 458.155 89.1228 435.619 89.1228H136.263V7.51221Z" fill="#F0F5FA"/>
<path id="Vector_22" d="M435.619 7.51221H395.554C418.091 7.51221 436.359 25.7819 436.359 48.3175C436.359 70.8541 418.09 89.1228 395.554 89.1228H435.619C458.156 89.1228 476.424 70.8531 476.424 48.3175C476.424 25.7819 458.156 7.51221 435.619 7.51221Z" fill="#E4ECF2"/>
<g id="Group_19">
<path id="Vector_23" d="M435.619 96.636H110.734C106.585 96.636 103.222 93.2726 103.222 89.1238C103.222 84.9751 106.585 81.6116 110.734 81.6116H435.619C453.977 81.6116 468.912 66.6764 468.912 48.3185C468.912 29.9607 453.977 15.0244 435.619 15.0244H110.734C106.585 15.0244 103.222 11.6609 103.222 7.51221C103.222 3.36347 106.585 0 110.734 0H435.619C462.261 0 483.937 21.6752 483.937 48.3175C483.937 74.9598 462.261 96.636 435.619 96.636Z" fill="#FC435F"/>
</g>
<g id="Group_20">
<path id="Vector_24" d="M136.05 40.8054H307.467C311.616 40.8054 314.979 44.1689 314.979 48.3176C314.979 52.4664 311.616 55.8298 307.467 55.8298H136.05V40.8054Z" fill="#C5D7E6"/>
</g>
</g>
</g>
</g>
</g>
<defs>
<filter id="filter0_d" x="-1" y="0" width="520" height="520" filterUnits="userSpaceOnUse" color-interpolation-filters="sRGB">
<feFlood flood-opacity="0" result="BackgroundImageFix"/>
<feColorMatrix in="SourceAlpha" type="matrix" values="0 0 0 0 0 0 0 0 0 0 0 0 0 0 0 0 0 0 127 0"/>
<feOffset dy="4"/>
<feGaussianBlur stdDeviation="2"/>
<feColorMatrix type="matrix" values="0 0 0 0 0 0 0 0 0 0 0 0 0 0 0 0 0 0 0.25 0"/>
<feBlend mode="normal" in2="BackgroundImageFix" result="effect1_dropShadow"/>
<feBlend mode="normal" in="SourceGraphic" in2="effect1_dropShadow" result="shape"/>
</filter>
<clipPath id="clip0">
<rect width="512" height="512" fill="white" transform="translate(3)"/>
</clipPath>
</defs>
</svg>
