<svg width="430" height="420" viewBox="0 0 522 515" fill="none" xmlns="http://www.w3.org/2000/svg">
<g id="undraw_book_lover_mkck 2" clip-path="url(#clip0)">
<path id="Vector" opacity="0.1" d="M306.135 87.0324C273.105 85.6074 241.643 72.3771 211.604 57.8992C181.565 43.4212 151.812 27.3789 119.573 19.7093C98.8382 14.7756 75.1225 14.0789 58.419 27.8729C42.338 41.1729 37.1427 64.0678 34.3512 85.3351C32.2486 101.333 31.0135 118.167 36.7753 133.145C40.7713 143.545 47.8702 152.285 52.7746 162.279C69.8558 196.934 57.7861 239.672 39.276 273.511C30.6001 289.388 20.5209 304.544 13.8251 321.428C7.12944 338.313 4.02655 357.687 9.88529 374.926C15.6981 392.026 29.5437 404.845 44.5376 413.87C75 432.205 110.882 437.449 145.897 440.419C223.382 446.999 301.276 444.149 378.966 441.299C407.719 440.242 436.594 439.171 464.877 433.655C480.585 430.59 496.799 425.732 508.205 413.99C522.679 399.088 526.266 373.849 516.57 355.166C500.295 323.822 455.329 316.039 443.938 282.396C437.681 263.884 444.111 243.263 453.206 226.087C472.721 189.252 505.429 156.933 507.154 114.829C508.338 85.9051 492.609 56.9492 468.296 43.2629C442.815 28.8672 407.469 30.6912 388.678 54.4348C369.315 78.9004 335.296 88.2864 306.135 87.0324Z" fill="#0A1D37"/>
<path id="Vector_2" d="M222.229 437.316L47.5487 436.258L30.1919 385.737L91.5658 380.208L80.869 324.817L202.259 305.291L86.0184 255.144L96.2865 252.117L283.2 289.958L272.906 376.402L258.193 423.908L222.229 437.316Z" fill="#0A1D37"/>
<path id="Vector_3" d="M50.228 415.098C50.228 415.098 60.9452 412.97 67.3756 422.369C67.3756 422.369 62.66 426.98 52.5144 420.596L50.228 415.098Z" fill="#0A1D37"/>
<path id="Vector_4" d="M49.1051 414.889C49.1051 414.889 42.2665 425.333 45.6348 436.961C45.6348 436.961 51.2077 434.193 51.815 420.095L49.1051 414.889Z" fill="#0A1D37"/>
<path id="Vector_5" d="M42.9604 397.72C42.9604 397.72 47.2473 387.96 64.3949 401.621C64.3949 401.621 62.1086 408.182 54.535 407.65C46.9615 407.118 44.961 402.862 42.9604 397.72Z" fill="#0A1D37"/>
<path id="Vector_6" d="M41.853 397.016C41.853 397.016 32.9577 395.75 32.0952 421.02C32.0952 421.02 37.7345 422.47 41.7407 414.477C45.7469 406.485 44.1036 402.001 41.853 397.016Z" fill="#0A1D37"/>
<path id="Vector_7" d="M36.6733 376.858C36.6733 376.858 41.6747 359.656 59.8225 371.892C59.8225 371.892 55.6785 387.675 38.531 382.71L36.6733 376.858Z" fill="#0A1D37"/>
<path id="Vector_8" d="M31.1006 351.145C31.1006 351.145 40.5317 333.766 57.2506 349.878C57.2506 349.878 51.3919 366.193 32.5295 357.326L31.1006 351.145Z" fill="#0A1D37"/>
<path id="Vector_9" d="M29.0996 326.672C29.0996 326.672 40.1026 310.706 56.6582 326.672C56.6582 326.672 46.2267 340.682 29.0996 330.751V326.672Z" fill="#0A1D37"/>
<path id="Vector_10" d="M27.3848 302.904C27.3848 302.904 38.5307 286.234 54.3922 302.017C54.3922 302.017 41.8173 316.735 27.3848 306.805V302.904Z" fill="#0A1D37"/>
<path id="Vector_11" d="M28.3853 281.801C28.3853 281.801 40.1232 260.343 54.964 274.885C54.964 274.885 42.3891 293.327 28.3853 285.879V281.801Z" fill="#0A1D37"/>
<path id="Vector_12" d="M31.1006 257.152C31.1006 257.152 43.5326 235.872 57.9651 252.186C57.9651 252.186 43.2468 270.629 31.1006 261.053V257.152Z" fill="#0A1D37"/>
<path id="Vector_13" d="M35.2446 235.118C35.2446 235.118 49.9629 215.117 62.8032 223.085C62.8032 223.085 47.4673 244.327 34.6016 240.425L35.2446 235.118Z" fill="#0A1D37"/>
<path id="Vector_14" d="M40.3885 214.231C40.3885 214.231 57.3727 189.733 67.253 197.916C67.253 197.916 54.7394 216.916 39.1841 218.816L40.3885 214.231Z" fill="#0A1D37"/>
<path id="Vector_15" d="M47.8143 190.006C47.8143 190.006 62.6806 170.005 73.5407 174.97C73.5407 174.97 60.823 195.718 45.8188 196.25L47.8143 190.006Z" fill="#0A1D37"/>
<path id="Vector_16" d="M54.5353 167.345C54.5353 167.345 70.9684 148.193 78.1132 151.563C78.1132 151.563 66.2528 172.843 53.8208 171.601L54.5353 167.345Z" fill="#0A1D37"/>
<path id="Vector_17" d="M61.1084 146.42C61.1084 146.42 75.2551 123.538 82.9766 125.311C82.9766 125.311 74.3977 145.71 61.1084 148.744V146.42Z" fill="#0A1D37"/>
<path id="Vector_18" d="M68.243 118.205C68.243 118.205 80.7464 100.668 87.5034 100.706C87.5034 100.706 77.6333 124.139 67.7275 123.924L68.243 118.205Z" fill="#0A1D37"/>
<path id="Vector_19" d="M72.4688 99.4205L84.5486 62.8899C84.5486 62.8899 85.1508 95.9118 70.9326 106.197L72.4688 99.4205Z" fill="#0A1D37"/>
<path id="Vector_20" d="M77.3732 59.1343C77.3732 59.1343 79.3737 28.6267 78.0876 26.144C78.0876 26.144 86.7227 51.509 77.2915 72.6116L77.3732 59.1343Z" fill="#0A1D37"/>
<path id="Vector_21" d="M36.204 376.452C36.204 376.452 23.6802 366.819 15.5708 390.386C15.5708 390.386 26.7167 399.569 37.6789 382.463L36.204 376.452Z" fill="#0A1D37"/>
<path id="Vector_22" d="M30.6971 350.163C30.6971 350.163 15.3358 341.467 7.88477 366.072C7.88477 366.072 19.7503 376.205 32.0955 356.382L30.6971 350.163Z" fill="#0A1D37"/>
<path id="Vector_23" d="M28.3852 328.135C28.3852 328.135 17.3822 312.169 0.82666 328.135C0.82666 328.135 11.2581 342.145 28.3852 332.214V328.135Z" fill="#0A1D37"/>
<path id="Vector_24" d="M27.0074 302.904C27.0074 302.904 15.8615 286.234 0 302.017C0 302.017 12.5749 316.735 27.0074 306.805V302.904Z" fill="#0A1D37"/>
<path id="Vector_25" d="M28.3852 282.409C28.3852 282.409 20.5667 258.374 3.57227 268.71C3.57227 268.71 12.7584 290.021 27.6911 286.399L28.3852 282.409Z" fill="#0A1D37"/>
<path id="Vector_26" d="M32.0855 257.031C32.0855 257.031 24.3129 232.578 7.07861 243.915C7.07861 243.915 17.6325 266.328 31.3199 260.806L32.0855 257.031Z" fill="#0A1D37"/>
<path id="Vector_27" d="M36.903 235.239C36.903 235.239 33.8409 208.43 19.5513 206.029C19.5513 206.029 22.5827 234.301 34.979 240.071L36.903 235.239Z" fill="#0A1D37"/>
<path id="Vector_28" d="M40.7508 214.281C40.7508 214.281 39.5566 181.981 27.7422 180.854C27.7422 180.854 28.1403 205.37 39.4189 218.854L40.7508 214.281Z" fill="#0A1D37"/>
<path id="Vector_29" d="M49.0392 189.1C49.0392 189.1 45.5179 162.241 34.2393 158.96C34.2393 158.96 35.6376 184.971 47.9216 195.693L49.0392 189.1Z" fill="#0A1D37"/>
<path id="Vector_30" d="M55.8724 167.567C55.8724 167.567 55.755 139.586 48.8654 135.476C48.8654 135.476 44.5938 160.809 53.8769 171.139L55.8724 167.567Z" fill="#0A1D37"/>
<path id="Vector_31" d="M61.634 146.103C61.634 146.103 60.6695 117.293 53.5349 113.233C53.5349 113.233 51.0954 136.033 60.5674 147.991L61.634 146.103Z" fill="#0A1D37"/>
<path id="Vector_32" d="M69.2386 120.504C69.2386 120.504 69.1978 97.0708 64.1045 91.5735C64.1045 91.5735 59.0419 117.242 66.5797 125.216L69.2386 120.504Z" fill="#0A1D37"/>
<path id="Vector_33" d="M71.8718 98.2677L66.9164 59.2671C66.9164 59.2671 60.1849 91.225 72.1066 105.31L71.8718 98.2677Z" fill="#0A1D37"/>
<path id="Vector_34" d="M72.8364 59.5014C72.8364 59.5014 60.1187 33.2815 60.3789 30.3682C60.3789 30.3682 61.7314 57.8484 77.7306 71.5347L72.8364 59.5014Z" fill="#0A1D37"/>
<path id="Vector_35" d="M74.3264 51.756C74.3264 51.756 62.3231 14.5161 56.8931 11.5015C56.8931 11.5015 74.0406 22.3188 75.3267 50.692L74.3264 51.756Z" fill="#0A1D37"/>
<path id="Vector_36" d="M67.6664 124.146L66.8447 123.835C76.975 82.8398 79.5012 56.7022 73.964 50.1472L74.5509 49.3745C80.425 56.2905 78.0417 82.1431 67.6664 124.146Z" fill="#444053"/>
<path id="Vector_37" d="M39.7713 220.133L38.5566 219.595C39.6335 215.839 40.7919 212.027 42.0066 208.271C52.5809 175.566 61.5833 145.141 67.3553 121.783L68.4117 121.15C62.6296 144.552 53.7853 176.142 43.2008 208.892C41.9912 212.578 40.8379 216.371 39.7713 220.133Z" fill="#444053"/>
<path id="Vector_38" d="M65.329 445.777C65.1656 445.555 48.7479 422.61 37.3009 383.438C30.5936 360.505 26.8608 336.396 26.2417 312.011C25.4558 281.529 30.6103 247.493 39.4392 216.574L40.3987 217.968C20.5769 287.362 28.4515 346.825 38.8983 382.634C50.2228 421.451 66.4568 444.143 66.615 444.371L65.329 445.777Z" fill="#444053"/>
<path id="Vector_39" d="M321.889 397.061C321.889 397.061 310.319 414.585 319.506 441.078L227.133 490.794L218.269 493.099L214.186 470.933L216.916 442.959V427.67L321.889 397.061Z" fill="#D5D6DB"/>
<path id="Vector_40" d="M30.1919 385.737L158.043 356.812L327.452 390.303L222.229 437.315L30.1919 385.737Z" fill="#0A1D37"/>
<path id="Vector_41" d="M30.1919 385.737L158.043 356.812L327.452 390.303L222.229 437.315L30.1919 385.737Z" fill="#0A1D37"/>
<path id="Vector_42" d="M30.192 385.73C30.192 385.73 18.2346 413.844 32.0139 439.811L221.607 490.794C221.607 490.794 209.838 468.399 222.214 437.315L30.192 385.73Z" fill="#0A1D37"/>
<path id="Vector_43" opacity="0.1" d="M30.192 385.73C30.192 385.73 18.2346 413.844 32.0139 439.811L221.607 490.794C221.607 490.794 209.838 468.399 222.214 437.315L30.192 385.73Z" fill="black"/>
<path id="Vector_44" opacity="0.1" d="M35.8413 395.478C35.8413 395.478 29.0078 416.048 35.8413 429.361V395.478Z" fill="black"/>
<path id="Vector_45" d="M221.606 490.794L327.452 434.744C327.452 434.744 333.372 436.327 329.544 441.711C325.716 447.094 223.648 496.177 223.648 496.177L32.0137 439.811L221.606 490.794Z" fill="#0A1D37"/>
<path id="Vector_46" opacity="0.1" d="M221.606 490.794L327.452 434.744C327.452 434.744 333.372 436.327 329.544 441.711C325.716 447.094 223.648 496.177 223.648 496.177L32.0137 439.811L221.606 490.794Z" fill="black"/>
<path id="Vector_47" opacity="0.1" d="M212.93 442.978C212.93 442.978 202.724 458.178 212.93 480.977V442.978Z" fill="black"/>
<path id="Vector_48" opacity="0.1" d="M262.346 442.721L216.563 461.676L216.725 462.277L262.507 443.321L262.346 442.721Z" fill="black"/>
<path id="Vector_49" opacity="0.1" d="M271.516 440.834L216.549 466.773L216.73 467.365L271.697 441.426L271.516 440.834Z" fill="black"/>
<path id="Vector_50" opacity="0.1" d="M279.937 440.743L216.855 472.786L217.049 473.372L280.131 441.33L279.937 440.743Z" fill="black"/>
<path id="Vector_51" opacity="0.1" d="M289.095 438L217.592 478.083L217.802 478.661L289.305 438.577L289.095 438Z" fill="black"/>
<path id="Vector_52" opacity="0.1" d="M296.789 438.012L218.158 480.665L218.363 481.245L296.994 438.593L296.789 438.012Z" fill="black"/>
<path id="Vector_53" opacity="0.1" d="M313.618 434.466L219.344 484.996L219.546 485.578L313.82 435.047L313.618 434.466Z" fill="black"/>
<path id="Vector_54" opacity="0.3" d="M77.6895 388.828L167.51 365.395L222.229 378.378L148.627 407.828L77.6895 388.828Z" fill="white"/>
<path id="Vector_55" d="M327.452 390.303C327.452 390.303 332.096 392.628 329.371 396.219C326.646 399.81 222.214 437.315 222.214 437.315L327.452 390.303Z" fill="#0A1D37"/>
<path id="Vector_56" d="M372.561 336.147C372.561 336.147 360.997 353.665 370.183 380.164L277.811 429.88L268.946 432.198L264.863 410.032L267.634 382.064V366.756L372.561 336.147Z" fill="#D5D6DB"/>
<path id="Vector_57" d="M80.8691 324.817L208.715 295.899L378.129 329.39L272.906 376.402L80.8691 324.817Z" fill="#3A3768"/>
<path id="Vector_58" d="M80.8488 324.817C80.8488 324.817 68.8864 352.931 82.6657 378.897L272.258 429.88C272.258 429.88 260.495 407.467 272.886 376.395L80.8488 324.817Z" fill="#3A3768"/>
<path id="Vector_59" opacity="0.1" d="M80.8488 324.817C80.8488 324.817 68.8864 352.931 82.6657 378.897L272.258 429.88C272.258 429.88 260.495 407.467 272.886 376.395L212.931 360.29L80.8488 324.817Z" fill="black"/>
<path id="Vector_60" opacity="0.1" d="M86.5134 334.564C86.5134 334.564 79.685 355.128 86.5134 368.447V334.564Z" fill="black"/>
<path id="Vector_61" d="M272.279 429.88L378.129 373.831C378.129 373.831 384.044 375.414 380.216 380.797C376.389 386.181 274.32 435.264 274.32 435.264L82.686 378.897L272.279 429.88Z" fill="#3A3768"/>
<path id="Vector_62" opacity="0.1" d="M272.279 429.88L378.129 373.831C378.129 373.831 384.044 375.414 380.216 380.797C376.389 386.181 274.32 435.264 274.32 435.264L82.686 378.897L272.279 429.88Z" fill="black"/>
<path id="Vector_63" opacity="0.1" d="M263.603 382.063C263.603 382.063 253.396 397.263 263.603 420.063V382.063Z" fill="black"/>
<path id="Vector_64" opacity="0.1" d="M313.022 381.813L267.239 400.769L267.401 401.369L313.183 382.414L313.022 381.813Z" fill="black"/>
<path id="Vector_65" opacity="0.1" d="M322.198 379.924L267.231 405.863L267.413 406.455L322.38 380.516L322.198 379.924Z" fill="black"/>
<path id="Vector_66" opacity="0.1" d="M330.613 379.824L267.531 411.867L267.724 412.453L330.806 380.411L330.613 379.824Z" fill="black"/>
<path id="Vector_67" opacity="0.1" d="M339.776 377.082L268.273 417.166L268.483 417.743L339.986 377.659L339.776 377.082Z" fill="black"/>
<path id="Vector_68" opacity="0.1" d="M347.463 377.087L268.832 419.739L269.036 420.32L347.667 377.667L347.463 377.087Z" fill="black"/>
<path id="Vector_69" opacity="0.1" d="M364.295 373.54L270.021 424.071L270.223 424.652L364.497 374.122L364.295 373.54Z" fill="black"/>
<path id="Vector_70" opacity="0.45" d="M128.367 327.914L218.187 304.48L272.906 317.464L199.304 346.914L128.367 327.914Z" fill="white"/>
<path id="Vector_71" d="M378.129 329.39C378.129 329.39 382.768 331.714 380.048 335.299C377.328 338.883 272.906 376.396 272.906 376.396L378.129 329.39Z" fill="#3A3768"/>
<path id="Vector_72" d="M377.358 266.462C377.358 266.462 365.789 297.92 374.975 324.412L282.603 360.195L273.759 362.519L269.676 340.353L272.406 312.378V297.071L377.358 266.462Z" fill="#D5D6DB"/>
<path id="Vector_73" d="M85.6816 255.138L213.533 226.213L382.947 259.704L277.719 306.716L85.6816 255.138Z" fill="#0A1D37"/>
<path id="Vector_74" d="M85.6818 255.131C85.6818 255.131 73.704 283.245 87.4833 309.212L277.076 360.195C277.076 360.195 265.307 337.781 277.699 306.716L85.6818 255.131Z" fill="#0A1D37"/>
<path id="Vector_75" opacity="0.1" d="M85.6818 255.131C85.6818 255.131 73.704 283.245 87.4833 309.212L277.076 360.195C277.076 360.195 265.307 337.781 277.699 306.716L85.6818 255.131Z" fill="black"/>
<path id="Vector_76" opacity="0.1" d="M91.3311 264.878C91.3311 264.878 84.4975 285.449 91.3311 298.762V264.878Z" fill="black"/>
<path id="Vector_77" d="M277.096 360.195L382.941 318.078C382.941 318.078 388.861 319.661 385.034 325.045C381.206 330.428 279.137 365.578 279.137 365.578L87.5034 309.211L277.096 360.195Z" fill="#0A1D37"/>
<path id="Vector_78" opacity="0.1" d="M277.096 360.195L382.941 318.078C382.941 318.078 388.861 319.661 385.034 325.045C381.206 330.428 279.137 365.578 279.137 365.578L87.5034 309.211L277.096 360.195Z" fill="black"/>
<path id="Vector_79" opacity="0.1" d="M268.42 312.378C268.42 312.378 258.213 327.578 268.42 350.378V312.378Z" fill="black"/>
<path id="Vector_80" opacity="0.1" d="M317.841 312.127L272.059 331.082L272.22 331.683L318.003 312.728L317.841 312.127Z" fill="black"/>
<path id="Vector_81" opacity="0.1" d="M327.014 310.241L272.047 336.18L272.228 336.772L327.195 310.833L327.014 310.241Z" fill="black"/>
<path id="Vector_82" opacity="0.1" d="M335.424 310.144L272.342 342.187L272.535 342.773L335.617 310.73L335.424 310.144Z" fill="black"/>
<path id="Vector_83" opacity="0.1" d="M344.594 307.395L273.091 347.479L273.301 348.057L344.804 307.973L344.594 307.395Z" fill="black"/>
<path id="Vector_84" opacity="0.1" d="M352.283 307.407L273.652 350.059L273.857 350.639L352.488 307.987L352.283 307.407Z" fill="black"/>
<path id="Vector_85" opacity="0.1" d="M369.114 303.864L274.84 354.395L275.043 354.976L369.317 304.445L369.114 303.864Z" fill="black"/>
<path id="Vector_86" opacity="0.3" d="M133.179 258.228L223 234.795L277.719 247.778L204.117 277.228L133.179 258.228Z" fill="white"/>
<path id="Vector_87" d="M382.941 259.704C382.941 259.704 387.586 262.028 384.86 265.619C382.135 269.21 277.719 306.716 277.719 306.716L382.941 259.704Z" fill="#0A1D37"/>
<path id="Vector_88" d="M158.421 67.4499C158.421 67.4499 139.028 65.9995 141.294 82.8842C141.294 82.8842 140.84 85.8672 143.019 87.2225C143.019 87.2225 143.055 85.9558 145.009 86.3928C145.707 86.5415 146.416 86.5841 147.122 86.5195C148.074 86.4387 148.978 85.9763 149.699 85.2022C149.699 85.2022 155.155 82.4028 157.278 71.3322C157.278 71.3322 158.85 68.9192 158.809 68.2985L155.522 70.0339C155.522 70.0339 156.64 72.9662 155.762 75.4045C155.762 75.4045 155.655 70.1415 155.022 70.2619C154.895 70.2619 153.323 71.2815 153.323 71.2815C153.323 71.2815 155.247 76.3925 153.792 80.1038C153.792 80.1038 154.344 73.8085 152.721 71.6489L150.414 73.3209C150.414 73.3209 152.664 78.5965 151.139 82.9032C151.139 82.9032 151.532 76.2975 149.929 73.7262L147.837 75.7529C147.837 75.7529 149.955 80.9525 148.663 84.5245C148.663 84.5245 148.495 76.8359 147.388 76.2532C147.388 76.2532 145.555 78.2545 145.28 79.0778C145.28 79.0778 146.729 82.8778 145.826 84.8475C145.826 84.8475 145.28 79.7238 144.805 79.6985C144.805 79.6985 142.983 83.0932 142.794 85.3985C142.883 83.2493 143.423 81.1662 144.361 79.3565C143.311 79.6031 142.342 80.2262 141.575 81.1488C141.575 81.1488 141.855 78.7485 144.815 78.5395C144.815 78.5395 146.321 75.9618 146.724 75.8098C146.724 75.8098 143.779 75.4995 141.998 76.4812C141.998 76.4812 143.57 74.2202 147.26 75.2145L149.301 73.1245C149.301 73.1245 145.433 72.4912 143.79 73.1942C143.79 73.1942 145.683 71.1929 149.858 72.6495L152.108 70.9839C152.108 70.9839 148.806 70.1035 146.841 70.4202C146.841 70.4202 148.913 69.0332 152.767 70.5342L154.369 69.6412C154.369 69.6412 151.955 69.0522 151.246 68.9572C150.536 68.8622 150.501 68.6215 150.501 68.6215C152.033 68.3093 153.605 68.5285 155.043 69.2549C155.043 69.2549 158.488 67.7159 158.421 67.4499Z" fill="#0A1D37"/>
<path id="Vector_89" opacity="0.1" d="M431.251 136.85C431.251 136.85 411.858 135.4 414.124 152.285C414.124 152.285 413.669 155.268 415.849 156.623C415.849 156.623 415.884 155.356 417.839 155.793C418.537 155.938 419.246 155.981 419.952 155.92C420.895 155.834 421.79 155.372 422.503 154.603C422.503 154.603 427.964 151.803 430.082 140.733C430.082 140.733 431.654 138.32 431.613 137.699L428.337 139.434C428.337 139.434 429.454 142.367 428.577 144.805C428.577 144.805 428.469 139.542 427.842 139.662C427.714 139.662 426.137 140.682 426.137 140.682C426.137 140.682 428.061 145.793 426.612 149.504C426.612 149.504 427.163 143.209 425.535 141.049L423.228 142.721C423.228 142.721 425.479 147.997 423.953 152.304C423.953 152.304 424.346 145.698 422.743 143.127L420.656 145.153C420.656 145.153 422.769 150.353 421.478 153.925C421.478 153.925 421.309 146.236 420.202 145.654C420.202 145.654 418.375 147.655 418.094 148.478C418.094 148.478 419.543 152.278 418.645 154.248C418.645 154.248 418.094 149.124 417.625 149.099C417.625 149.099 415.803 152.494 415.614 154.799C415.702 152.649 416.244 150.565 417.186 148.757C416.134 149.004 415.164 149.627 414.394 150.549C414.394 150.549 414.68 148.149 417.635 147.94C417.635 147.94 419.14 145.362 419.543 145.204C419.543 145.204 416.604 144.9 414.818 145.882C414.818 145.882 416.39 143.621 420.079 144.615L422.121 142.525C422.121 142.525 418.247 141.892 416.609 142.595C416.609 142.595 418.497 140.593 422.677 142.05L424.922 140.384C424.922 140.384 421.621 139.504 419.656 139.821C419.656 139.821 421.728 138.434 425.581 139.935L427.188 139.042C427.188 139.042 424.769 138.453 424.06 138.358C423.351 138.263 423.315 138.022 423.315 138.022C424.847 137.706 426.42 137.925 427.857 138.655C427.857 138.655 431.312 137.116 431.251 136.85Z" fill="#0A1D37"/>
<path id="Vector_90" opacity="0.1" d="M191.083 171.759C191.083 171.759 182.631 150.017 171.873 160.733C171.873 160.733 169.551 161.696 169.664 164.717C169.664 164.717 170.557 164.141 171.195 166.471C171.433 167.295 171.748 168.082 172.134 168.815C172.656 169.808 173.424 170.564 174.323 170.968C174.323 170.968 178.952 175.515 187.776 172.412C187.776 172.412 190.241 172.937 190.644 172.57L187.827 169.866C187.827 169.866 186.296 172.507 184.162 172.741C184.162 172.741 187.817 170.062 187.424 169.441C187.342 169.315 185.893 168.092 185.893 168.092C185.893 168.092 183.234 172.671 179.916 172.906C179.916 172.906 184.612 170.436 185.336 167.617L183.04 165.933C183.04 165.933 180.422 170.949 176.65 171.392C176.65 171.392 181.488 168.599 182.514 165.61L180.075 164.343C180.075 164.343 177.446 169.169 174.303 169.517C174.303 169.517 179.631 165.585 179.498 164.096C179.498 164.096 177.196 163.096 176.482 163.191C176.482 163.191 174.532 166.604 172.695 166.604C172.695 166.604 176.028 163.507 175.823 163.007C175.823 163.007 172.547 162.69 170.822 163.64C172.376 162.681 174.106 162.245 175.839 162.374C175.151 161.356 174.24 160.61 173.216 160.227C173.216 160.227 175.043 159.365 176.63 162.462C176.63 162.462 179.182 162.836 179.483 163.197C179.483 163.197 178.263 159.866 176.706 158.415C176.706 158.415 179.064 159.004 180.141 163.482L182.616 164.698C182.616 164.698 181.192 160.189 179.881 158.764C179.881 158.764 182.208 159.834 183.223 165.097L185.489 166.718C185.489 166.718 184.504 162.709 183.32 160.74C183.32 160.74 185.306 162.31 186.127 167.212L187.541 168.517C187.541 168.517 186.775 165.61 186.52 164.799C186.265 163.989 186.393 163.824 186.393 163.824C187.364 165.328 187.978 167.137 188.169 169.049C188.169 169.049 190.899 171.949 191.083 171.759Z" fill="#0A1D37"/>
<path id="Vector_91" opacity="0.1" d="M386.943 106.134C386.943 106.134 378.497 84.3915 367.733 95.1075C367.733 95.1075 365.416 96.0701 365.524 99.0911C365.524 99.0911 366.422 98.5211 367.055 100.845C367.293 101.673 367.609 102.462 367.999 103.195C368.519 104.187 369.286 104.941 370.183 105.342C370.183 105.342 374.817 109.889 383.636 106.792C383.636 106.792 386.101 107.312 386.509 106.944L383.707 104.234C383.707 104.234 382.176 106.881 380.048 107.115C380.048 107.115 383.697 104.43 383.304 103.809C383.222 103.683 381.773 102.46 381.773 102.46C381.773 102.46 379.119 107.039 375.797 107.274C375.797 107.274 380.497 104.804 381.222 101.992L378.89 100.32C378.89 100.32 376.277 105.329 372.5 105.779C372.5 105.779 377.338 102.98 378.369 99.9904L375.924 98.7238C375.924 98.7238 373.296 103.556 370.158 103.898C370.158 103.898 375.48 99.9651 375.348 98.4831C375.348 98.4831 373.051 97.4761 372.337 97.5775C372.337 97.5775 370.387 100.985 368.545 100.985C368.545 100.985 371.883 97.8878 371.678 97.3875C371.678 97.3875 368.402 97.0708 366.672 98.0208C368.226 97.0618 369.956 96.625 371.689 96.7541C371.004 95.7363 370.094 94.9898 369.071 94.6071C369.071 94.6071 370.898 93.7458 372.485 96.8428C372.485 96.8428 375.036 97.2228 375.338 97.5838C375.338 97.5838 374.118 94.2461 372.556 92.7958C372.556 92.7958 374.914 93.3911 375.991 97.8941L378.471 99.1101C378.471 99.1101 377.047 94.5945 375.736 93.1695C375.736 93.1695 378.063 94.2398 379.073 99.5028L381.344 101.124C381.344 101.124 380.354 97.1214 379.17 95.1455C379.17 95.1455 381.161 96.7161 381.977 101.618L383.391 102.923C383.391 102.923 382.63 100.016 382.37 99.2051C382.11 98.3944 382.243 98.2361 382.243 98.2361C383.211 99.7412 383.824 101.55 384.013 103.461C384.013 103.461 386.785 106.336 386.943 106.134Z" fill="#0A1D37"/>
<path id="Vector_92" opacity="0.1" d="M413.935 213.68C413.935 213.68 405.488 191.931 394.71 202.647C394.71 202.647 392.393 203.61 392.5 206.631C392.5 206.631 393.398 206.061 394.031 208.385C394.267 209.212 394.583 210.001 394.97 210.735C395.491 211.726 396.257 212.48 397.155 212.882C397.155 212.882 401.788 217.435 410.612 214.332C410.612 214.332 413.072 214.858 413.48 214.484L410.663 211.78C410.663 211.78 409.132 214.427 406.999 214.661C406.999 214.661 410.648 211.976 410.255 211.355C410.173 211.229 408.724 210.006 408.724 210.006C408.724 210.006 406.07 214.585 402.748 214.826C402.748 214.826 407.448 212.35 408.173 209.538L405.871 207.853C405.871 207.853 403.258 212.869 399.482 213.312C399.482 213.312 404.32 210.513 405.351 207.524L402.906 206.257C402.906 206.257 400.278 211.083 397.139 211.431C397.139 211.431 402.467 207.498 402.335 206.01C402.335 206.01 400.033 205.003 399.318 205.104C399.318 205.104 397.369 208.512 395.527 208.512C395.527 208.512 398.864 205.415 398.66 204.914C398.66 204.914 395.384 204.598 393.654 205.548C395.21 204.589 396.941 204.153 398.675 204.281C397.99 203.262 397.077 202.515 396.052 202.134C396.052 202.134 397.879 201.266 399.466 204.37C399.466 204.37 402.018 204.743 402.319 205.104C402.319 205.104 401.099 201.773 399.543 200.316C399.543 200.316 401.901 200.912 402.978 205.415L405.453 206.631C405.453 206.631 404.029 202.115 402.717 200.696C402.717 200.696 405.044 201.76 406.055 207.03L408.326 208.645C408.326 208.645 407.336 204.642 406.152 202.666C406.152 202.666 408.142 204.237 408.964 209.145L410.378 210.412C410.378 210.412 409.612 207.505 409.357 206.694C409.102 205.883 409.229 205.725 409.229 205.725C410.2 207.228 410.813 209.038 411 210.95C411 210.95 413.776 213.87 413.935 213.68Z" fill="#0A1D37"/>
<path id="Vector_93" opacity="0.1" d="M103.064 496.633C109.544 496.633 114.797 495.905 114.797 495.006C114.797 494.107 109.544 493.378 103.064 493.378C96.584 493.378 91.3311 494.107 91.3311 495.006C91.3311 495.905 96.584 496.633 103.064 496.633Z" fill="#0A1D37"/>
<path id="Vector_94" opacity="0.1" d="M26.1498 468.969C32.6296 468.969 37.8826 468.24 37.8826 467.342C37.8826 466.443 32.6296 465.714 26.1498 465.714C19.6699 465.714 14.417 466.443 14.417 467.342C14.417 468.24 19.6699 468.969 26.1498 468.969Z" fill="#0A1D37"/>
<path id="Vector_95" opacity="0.1" d="M161.692 515.006C168.172 515.006 173.425 514.278 173.425 513.379C173.425 512.48 168.172 511.751 161.692 511.751C155.212 511.751 149.959 512.48 149.959 513.379C149.959 514.278 155.212 515.006 161.692 515.006Z" fill="#0A1D37"/>
<path id="Vector_96" opacity="0.1" d="M462.132 474.986C468.612 474.986 473.865 474.258 473.865 473.359C473.865 472.46 468.612 471.731 462.132 471.731C455.652 471.731 450.399 472.46 450.399 473.359C450.399 474.258 455.652 474.986 462.132 474.986Z" fill="#0A1D37"/>
<path id="Vector_97" opacity="0.1" d="M364.497 467.088C370.977 467.088 376.23 466.36 376.23 465.461C376.23 464.562 370.977 463.833 364.497 463.833C358.018 463.833 352.765 464.562 352.765 465.461C352.765 466.36 358.018 467.088 364.497 467.088Z" fill="#0A1D37"/>
<path id="Vector_98" opacity="0.1" d="M301.338 505.608C309.001 505.608 315.214 504.284 315.214 502.65C315.214 501.017 309.001 499.692 301.338 499.692C293.674 499.692 287.461 501.017 287.461 502.65C287.461 504.284 293.674 505.608 301.338 505.608Z" fill="#0A1D37"/>
<path id="Vector_99" d="M307.528 472.921C307.528 472.921 288.206 485.309 298.189 499.901C298.189 499.901 299.128 503.068 301.843 502.846C301.843 502.846 301.302 501.618 303.374 500.636C304.111 500.282 304.812 499.821 305.461 499.262C306.339 498.509 306.994 497.422 307.329 496.165C307.329 496.165 311.279 489.603 308.217 477.462C308.217 477.462 308.615 474.03 308.268 473.472L305.92 477.469C305.92 477.469 308.345 479.489 308.625 482.459C308.625 482.459 306.074 477.475 305.563 478.026C305.451 478.14 304.4 480.211 304.4 480.211C304.4 480.211 308.605 483.751 308.916 488.349C308.916 488.349 306.548 481.908 303.991 480.99L302.527 484.233C302.527 484.233 307.12 487.703 307.63 492.922C307.63 492.922 304.961 486.304 302.236 484.967L301.159 488.394C301.159 488.394 305.589 491.89 305.997 496.234C305.997 496.234 302.292 488.97 300.96 489.198C300.96 489.198 300.123 492.415 300.235 493.41C300.235 493.41 303.364 496.006 303.42 498.559C303.42 498.559 300.531 494.03 300.087 494.328C300.087 494.328 299.903 498.882 300.791 501.25C300.791 501.25 299.26 497.868 299.511 494.328C298.616 495.31 297.972 496.596 297.658 498.027C297.658 498.027 296.826 495.525 299.567 493.22C299.567 493.22 299.827 489.679 300.143 489.242C300.143 489.242 297.178 491.041 295.918 493.245C295.918 493.245 296.382 489.958 300.404 488.324L301.424 484.853C301.424 484.853 297.403 486.969 296.163 488.831C296.163 488.831 297.056 485.569 301.741 484.005L303.129 480.838C303.129 480.838 299.556 482.333 297.811 484.005C297.811 484.005 299.164 481.199 303.558 479.907L304.685 477.912C304.685 477.912 302.093 479.058 301.368 479.47C300.643 479.882 300.501 479.679 300.501 479.679C301.825 478.289 303.435 477.381 305.15 477.057C305.15 477.057 307.707 473.137 307.528 472.921Z" fill="#0A1D37"/>
<path id="Vector_100" d="M364.876 238.95C361.538 227.696 343.166 226.638 335.194 229.507C329.529 231.553 317.587 233.858 311.208 235.017L310.795 234.529C311.621 234.225 311.642 233.478 311.54 232.37C311.48 230.909 311.497 229.445 311.591 227.987C315.5 229.494 318.98 225.929 318.98 225.929C323.574 223.395 322.339 212.553 323.216 209.589C323.875 207.372 324.584 194.313 324.901 187.802H324.967L325.003 185.617C325.048 184.673 325.069 184.122 325.069 184.122C325.069 184.122 325.518 168.2 326.396 164.977C327.212 162.013 327.876 147.079 327.978 144.71C327.978 144.507 327.978 144.4 327.978 144.4L327.912 143.019C327.957 142.012 327.978 140.891 327.973 139.713C327.973 134.298 327.519 127.477 327.462 126.375C327.462 126.217 327.462 126.027 327.462 125.799C327.498 123.487 327.263 111.91 319.328 107.534C316.403 105.912 312.887 103.981 309.483 102.1C308.605 92.6945 306.6 83.3402 306.773 73.8656C306.773 72.4406 306.875 71.0156 306.987 69.5969C306.987 70.0086 306.952 70.4266 306.947 70.8636C306.947 71.7819 306.947 72.7066 306.947 73.6249C307.248 61.7753 310.856 49.8623 310.519 38.266C310.488 39.3997 310.422 40.5397 310.335 41.6797C310.511 37.7573 310.181 33.8253 309.355 30.0327C309.049 28.6964 308.636 27.3157 307.753 26.4227C306.918 25.7035 305.961 25.2332 304.956 25.0484C302.541 24.2813 300.088 23.7142 297.612 23.3511C297.236 21.9221 296.678 20.5772 295.959 19.3674C290.784 10.5514 283.119 2.26744 274.055 0.367442C269.508 -0.582555 264.277 0.209109 261.184 4.24343C260.861 4.59784 260.558 4.97869 260.276 5.38343C258.612 7.84709 257.897 11.0834 256.193 13.5407C256.081 13.7054 255.953 13.8574 255.831 14.0157C252.493 17.7207 247.293 18.4934 243.582 21.8184C242.929 22.4153 242.316 23.0783 241.75 23.8007C240.255 25.6392 238.915 27.6615 237.749 29.8364C236.08 32.7497 234.366 35.7834 233.835 39.2603C232.768 46.227 236.591 52.8326 237.3 59.8436C238.882 75.5312 224.894 89.4519 227.542 104.931C228.249 108.733 229.81 112.209 232.043 114.956C226.588 121.087 221.944 127.034 221.944 127.034V127.388H221.081L221.168 128.655H221.081L221.556 135.527L221.081 145.533C221.081 145.533 221.081 145.641 221.081 145.844V145.894V146.167C221.081 146.167 221.081 146.274 221.081 146.477H221.112C221.27 150.144 221.898 163.33 222.643 166.11C223.521 169.334 223.965 185.256 223.965 185.256C223.965 185.256 224.934 207.758 225.822 210.735C226.71 213.712 225.45 224.523 230.058 227.075C231.406 228.358 233.003 229.179 234.687 229.456C234.452 231.825 234.6 233.541 235.361 234.079C235.686 234.317 236.055 234.448 236.432 234.46C236.12 235.035 235.842 235.638 235.601 236.264C233.771 236.027 231.974 235.502 230.252 234.7C225.302 232.167 208.874 226.467 204.102 230.476C199.33 234.485 187.848 238.12 193.15 254.257C198.453 270.395 200.923 270.8 200.923 270.8C202.555 272.27 203.987 274.056 205.164 276.088C206.756 279.059 221.592 285.854 225.302 285.854C226.879 285.824 228.456 285.922 230.022 286.146C230.022 286.146 225.996 290.528 226.532 293.074C227.068 295.62 225.307 316.001 225.307 316.001C225.307 316.001 229.39 321.106 231.135 314.411L231.196 314.513C231.523 315.064 233.289 317.553 236.611 314.411C237.971 313.131 239.415 311.996 240.929 311.017L257.015 308.192C258.692 308.062 260.373 308.047 262.052 308.148C264.603 308.407 267.109 306.533 268.686 305.082C272.019 306.653 275.765 308.369 277.546 308.996C281.159 310.263 297.766 315.792 301.649 314.063C302.457 313.665 303.174 313.03 303.742 312.214L307.447 312.359L305.712 312.79C305.712 312.79 309.09 312.86 313.683 312.936L313.489 313.075L319.251 313.012C327.682 313.107 337.154 313.138 338.399 312.79C340.349 312.252 350.479 312.632 353.464 312.79H354.296C354.296 312.79 365.427 310.035 360.834 296.019C357.302 285.253 346.447 282.124 341.63 281.263C342.987 280.927 344.156 280.667 344.932 280.515C348.295 279.882 354.827 276.082 355.358 274.784C355.889 273.485 361.365 269.717 362.778 267.57C364.192 265.423 368.229 250.204 364.876 238.95ZM272.682 270.445L272.136 270.667L271.769 270.819L271.064 271.68C270.503 271.212 269.901 270.718 269.273 270.211C270.38 270.293 271.519 270.376 272.682 270.445Z" fill="url(#paint0_linear)"/>
<path id="Vector_101" d="M305.221 203.667C305.221 203.667 313.029 229 317.469 226.467C321.909 223.934 320.705 213.167 321.552 210.216C322.399 207.264 323.338 184.882 323.338 184.882C323.338 184.882 323.767 169.049 324.614 165.844C325.4 162.899 326.038 148.048 326.145 145.711C326.145 145.508 326.145 145.4 326.145 145.4L325.303 127.034L320.537 125.558L309.483 130.625L307.952 141.474L307.354 145.711L307.099 147.516L305.221 203.667Z" fill="#BE6F72"/>
<path id="Vector_102" opacity="0.1" d="M307.793 199.423C307.793 199.423 315.244 206.992 317.49 207.657C319.735 208.322 321.113 214.224 321.113 214.224" fill="black"/>
<path id="Vector_103" d="M244.158 204.775C244.158 204.775 236.35 230.108 231.91 227.575C227.47 225.042 228.675 214.275 227.827 211.324C226.98 208.372 226.041 185.99 226.041 185.99C226.041 185.99 225.613 170.157 224.765 166.952C223.979 164.007 223.342 149.156 223.234 146.819C223.234 146.616 223.234 146.509 223.234 146.509L224.082 128.142L228.848 126.666L239.902 131.733L241.433 142.582L242.03 146.819L242.286 148.624L244.158 204.775Z" fill="#BE6F72"/>
<path id="Vector_104" d="M295.004 69.2041H277.576V102.916H295.004V69.2041Z" fill="#3E373A"/>
<path id="Vector_105" opacity="0.1" d="M295.004 69.2041H277.576V102.916H295.004V69.2041Z" fill="black"/>
<path id="Vector_106" d="M241.096 230.007C241.096 230.007 235.141 238.133 237.351 239.608C239.56 241.084 253.855 268.742 253.855 268.742C253.855 268.742 300.807 275.917 309.661 265.151C318.516 254.384 318.337 235.15 318.337 235.15C318.337 235.15 311.223 237.05 310.447 236.017C309.671 234.985 305.41 230.007 305.41 230.007C305.41 230.007 245.179 225.472 241.096 230.007Z" fill="#4B4B5B"/>
<path id="Vector_107" opacity="0.02" d="M241.096 230.007C241.096 230.007 235.141 238.133 237.351 239.608C239.56 241.084 253.855 268.742 253.855 268.742C253.855 268.742 300.807 275.917 309.661 265.151C318.516 254.384 318.337 235.15 318.337 235.15C318.337 235.15 311.223 237.05 310.447 236.017C309.671 234.985 305.41 230.007 305.41 230.007C305.41 230.007 245.179 225.472 241.096 230.007Z" fill="black"/>
<path id="Vector_108" d="M325.62 127.3L310.309 142.5L305.68 142.918L303.981 143.07L275.437 145.666L245.837 142.981L241.433 142.582L235.819 142.075L224.082 128.142C224.082 128.142 232.39 117.097 239.667 109.642C242.536 106.697 245.246 104.316 247.221 103.379L247.557 103.233C248.8 102.632 249.909 101.672 250.793 100.434C256.539 93.0806 261.852 74.9357 261.852 74.9357C261.852 74.9357 287.201 58.6844 284.139 80.0023C281.077 101.32 295.535 96.051 295.535 96.051L300.301 98.749L302.185 99.8193L306.987 102.549L317.822 108.718C326.324 113.575 325.62 127.3 325.62 127.3Z" fill="#BE6F72"/>
<path id="Vector_109" opacity="0.1" d="M274.249 92.2955C286.839 92.2955 297.046 79.6292 297.046 64.0045C297.046 48.3799 286.839 35.7136 274.249 35.7136C261.658 35.7136 251.452 48.3799 251.452 64.0045C251.452 79.6292 261.658 92.2955 274.249 92.2955Z" fill="black"/>
<path id="Vector_110" opacity="0.1" d="M325.655 147.452H223.234C223.234 147.25 223.234 147.142 223.234 147.142L224.082 128.775C224.082 128.775 232.39 117.73 239.667 110.276L303.971 107.109L306.961 103.195L317.796 109.364C326.303 114.215 325.62 127.939 325.62 127.939C325.62 127.939 326.783 143.842 325.655 147.452Z" fill="black"/>
<path id="Vector_111" d="M325.655 146.819H223.234C223.234 146.616 223.234 146.509 223.234 146.509L224.082 128.142C224.082 128.142 232.39 117.097 239.667 109.642L303.971 106.476L306.961 102.562L317.796 108.73C326.303 113.582 325.62 127.306 325.62 127.306C325.62 127.306 326.783 143.209 325.655 146.819Z" fill="#E7C7CA"/>
<path id="Vector_112" opacity="0.1" d="M257.831 95.3163C257.831 95.3163 273.988 120.865 295.51 94.7906C317.031 68.7163 297.893 152.949 297.893 152.949L251.452 159.789L257.831 95.3163Z" fill="black"/>
<path id="Vector_113" d="M257.831 96.5831C257.831 96.5831 273.988 122.132 295.51 96.0575C317.031 69.9832 297.893 154.216 297.893 154.216L251.452 161.056L257.831 96.5831Z" fill="#E7C7CA"/>
<path id="Vector_114" opacity="0.1" d="M302.159 101.067L303.869 133.424L305.701 144.191L307.099 152.424C307.099 152.424 310.672 215.757 309.651 218.924C308.63 222.09 310.161 224.624 310.376 226.308C310.59 227.993 310.161 232.224 310.33 234.124C310.498 236.024 310.33 236.866 306.421 236.188C302.511 235.511 297.061 234.333 297.061 234.333C297.061 234.333 283.282 235.599 278.52 233.49C273.759 231.381 264.741 231.375 264.741 231.375C264.741 231.375 251.13 231.799 246.71 231.166C242.291 230.533 239.902 237.924 237.014 235.808C234.125 233.693 240.413 213.224 242.454 207.308C244.495 201.393 239.734 186.408 239.734 186.408L245.858 144.248L247.221 134.691V104.645L247.557 104.5C248.8 103.898 249.909 102.939 250.793 101.7L252.324 131.936L300.296 134.051V100.022" fill="black"/>
<path id="Vector_115" d="M302.159 99.8004L303.869 132.157L305.701 142.924L307.099 151.157C307.099 151.157 310.672 214.49 309.651 217.657C308.63 220.824 310.161 223.357 310.376 225.042C310.59 226.726 310.161 230.957 310.33 232.857C310.498 234.757 310.33 235.599 306.421 234.922C302.511 234.244 297.061 233.066 297.061 233.066C297.061 233.066 283.282 234.333 278.52 232.224C273.759 230.115 264.741 230.108 264.741 230.108C264.741 230.108 251.13 230.533 246.71 229.899C242.291 229.266 239.902 236.657 237.014 234.542C234.125 232.426 240.413 211.957 242.454 206.042C244.495 200.126 239.734 185.142 239.734 185.142L245.858 142.981L247.221 133.424V103.379L247.557 103.233C248.8 102.632 249.909 101.672 250.793 100.434L252.324 130.669L300.296 132.784V98.7554" fill="#E7C7CA"/>
<path id="Vector_116" opacity="0.1" d="M307.676 32.2746C307.385 30.9509 306.982 29.5766 306.145 28.6899C305.346 27.9778 304.423 27.5091 303.451 27.3219C301.123 26.5623 298.756 25.9995 296.367 25.6373C296.026 24.231 295.509 22.8996 294.836 21.6916C289.835 12.9263 282.435 4.66133 273.728 2.793C269.171 1.81134 263.889 2.69166 260.97 7.15032C259.367 9.60131 258.678 12.8503 257.06 15.257C253.942 19.931 248.313 20.5073 244.383 24.1236C242.286 26.0236 240.765 28.7786 239.28 31.4513C237.672 34.3456 236.019 37.3602 235.509 40.8182C234.488 47.7279 238.167 54.3145 238.846 61.2875C240.377 76.8865 226.904 90.7248 229.451 106.115C230.936 115.089 237.616 121.41 244.526 124.614C246.961 125.748 249.742 126.875 250.88 129.776C251.39 131.043 251.477 132.506 251.957 133.785C253.57 138.054 258.872 138.218 261.72 135.109C264.567 131.999 265.466 126.97 265.803 122.277C267.17 101.783 260.556 81.5351 261.327 60.9898C261.556 54.7769 262.965 47.7279 267.451 44.9159C273.488 41.1159 280.75 47.4492 287.395 46.2395C290.54 55.7341 291.207 66.2128 289.304 76.2025C288.247 81.6681 286.42 86.9691 286.288 92.6058C286.089 101.187 289.819 109.028 293.045 116.615C293.737 118.034 294.2 119.607 294.407 121.245C294.458 122.907 294.209 124.563 293.678 126.09C291.856 132.176 288.712 137.826 288.355 144.305C288.25 145.061 288.387 145.838 288.737 146.471C289.097 146.893 289.561 147.152 290.054 147.205C295.566 148.377 300.332 142.316 303.022 136.23C306.021 129.507 307.768 122.037 308.136 114.367C308.692 101.472 304.966 88.7868 305.196 75.8795C305.461 61.2052 310.805 46.4295 307.676 32.2746Z" fill="black"/>
<path id="Vector_117" d="M308.186 31.6413C307.896 30.3176 307.492 28.9433 306.655 28.0566C305.856 27.3445 304.933 26.8758 303.961 26.6886C301.633 25.929 299.266 25.3662 296.877 25.004C296.536 23.5977 296.019 22.2663 295.346 21.0583C290.345 12.293 282.945 4.02803 274.238 2.1597C269.681 1.17803 264.399 2.05836 261.48 6.51702C259.877 8.96801 259.188 12.217 257.571 14.6237C254.452 19.2977 248.823 19.874 244.894 23.4903C242.796 25.3903 241.275 28.1453 239.79 30.818C238.183 33.7123 236.529 36.7269 236.019 40.1849C234.998 47.0946 238.678 53.6812 239.356 60.6542C240.887 76.2532 227.414 90.0915 229.961 105.481C231.446 114.456 238.126 120.776 245.037 123.981C247.471 125.115 250.252 126.242 251.39 129.143C251.901 130.409 251.987 131.872 252.467 133.152C254.08 137.42 259.382 137.585 262.23 134.475C265.078 131.366 265.976 126.337 266.313 121.644C267.68 101.149 261.066 80.9018 261.837 60.3565C262.067 54.1436 263.475 47.0946 267.961 44.2826C273.999 40.4826 281.261 46.8159 287.905 45.6062C291.05 55.1008 291.717 65.5795 289.814 75.5692C288.758 81.0348 286.931 86.3358 286.798 91.9725C286.599 100.554 290.33 108.395 293.555 115.982C294.247 117.401 294.71 118.973 294.918 120.612C294.968 122.274 294.719 123.929 294.188 125.457C292.366 131.543 289.222 137.192 288.865 143.671C288.76 144.428 288.897 145.205 289.248 145.837C289.607 146.259 290.071 146.518 290.564 146.572C296.076 147.744 300.843 141.683 303.532 135.596C306.531 128.874 308.278 121.404 308.646 113.734C309.202 100.839 305.477 88.1535 305.706 75.2462C305.972 60.5719 311.315 45.7962 308.186 31.6413Z" fill="#3E373A"/>
<path id="Vector_118" d="M296.913 312.062L317.158 312.866L314.255 294.233L298.745 296.064L296.913 312.062Z" fill="#C3C7D9"/>
<path id="Vector_119" d="M359.644 267.899C358.282 270.008 353.01 273.808 352.5 275.075C351.989 276.341 345.697 280.141 342.461 280.775C339.226 281.408 329.024 284.157 327.151 285.632C325.809 286.696 315.035 290.066 307.957 291.934C306.04 292.497 304.099 292.93 302.144 293.232C299.082 293.441 265.573 279.299 265.573 279.299L272.034 271.066L272.391 270.914C274.218 270.147 282.659 266.607 287.344 264.923C292.621 263.023 298.745 255.214 298.745 255.214C298.745 255.214 307.758 251.414 308.952 250.989C310.146 250.565 305.89 236.214 305.89 236.214C305.89 236.214 325.451 232.844 333.107 229.988C340.762 227.132 358.455 228.189 361.686 239.38C364.916 250.571 361.027 265.79 359.644 267.899Z" fill="#4B4B5B"/>
<path id="Vector_120" d="M270.503 303.575C270.503 303.575 266.593 308.642 262.679 308.224C258.765 307.806 245.077 309.49 245.077 309.49C242.597 310.718 240.274 312.389 238.182 314.449C234.983 317.578 233.283 315.082 232.967 314.551L232.911 314.449C231.206 321.105 227.297 316.032 227.297 316.032C227.297 316.032 228.996 295.766 228.476 293.233C227.955 290.699 231.839 286.348 231.839 286.348L236.432 284.898L248.068 281.199L264.741 288.375L270.503 303.575Z" fill="#E7C7CA"/>
<path id="Vector_121" opacity="0.1" d="M236.412 284.898L232.967 314.551L232.911 314.449C231.206 321.106 227.297 316.033 227.297 316.033C227.297 316.033 228.996 295.766 228.476 293.233C227.955 290.699 231.839 286.348 231.839 286.348L236.412 284.898Z" fill="black"/>
<path id="Vector_122" opacity="0.1" d="M260.49 200.551C260.49 200.551 269.502 204.351 277.331 200.551H260.49Z" fill="black"/>
<path id="Vector_123" opacity="0.1" d="M291.258 207.733C291.258 207.733 294.999 210.051 297.893 207.733H291.258Z" fill="black"/>
<path id="Vector_124" opacity="0.1" d="M291.258 213.23C291.258 213.23 297.551 214.275 298.745 212.166L291.258 213.23Z" fill="black"/>
<path id="Vector_125" opacity="0.1" d="M289.217 225.042C289.217 225.042 301.036 223.142 303.971 220.608L289.217 225.042Z" fill="black"/>
<path id="Vector_126" opacity="0.1" d="M253.151 220.608C253.151 220.608 259.785 225.251 264.72 225.042L253.151 220.608Z" fill="black"/>
<path id="Vector_127" opacity="0.1" d="M307.951 291.934C306.034 292.497 304.094 292.931 302.139 293.233C299.077 293.442 265.567 279.299 265.567 279.299L272.028 271.066L272.386 270.914C273.406 271.807 274.243 272.573 274.84 273.156C277.652 275.905 280.367 272.314 281.388 272.314C282.409 272.314 291.253 281.389 291.253 281.389C291.253 281.389 299.419 283.714 300.781 285.823C302.144 287.932 306.905 287.514 307.752 288.989C308.008 289.445 308.038 290.566 307.951 291.934Z" fill="black"/>
<path id="Vector_128" d="M245.077 237.075C245.077 237.075 236.82 237.664 232.058 235.175C227.297 232.686 211.476 226.942 206.883 230.976C202.29 235.01 191.231 238.576 196.334 254.625C201.438 270.673 203.821 271.091 203.821 271.091C205.4 272.561 206.779 274.336 207.904 276.348C209.435 279.306 223.725 286.057 227.297 286.057C230.869 286.057 237.162 286.057 246.006 293.657C254.85 301.257 262.848 302.106 262.848 302.106C262.848 302.106 274.075 307.806 277.571 309.072C281.067 310.339 297.041 315.824 300.787 314.139C304.532 312.454 306.911 301.89 306.911 301.89C306.911 301.89 308.61 292.39 307.758 290.915C306.906 289.439 302.144 289.857 300.787 287.748C299.429 285.639 291.258 283.315 291.258 283.315C291.258 283.315 282.435 274.233 281.414 274.233C280.393 274.233 277.678 277.817 274.866 275.075C269.265 269.926 263.38 265.271 257.254 261.142C250.793 256.917 245.077 237.075 245.077 237.075Z" fill="#4B4B5B"/>
<path id="Vector_129" opacity="0.1" d="M228.476 243.199C229.946 242.827 231.466 242.88 232.917 243.356C234.368 243.832 235.711 244.716 236.841 245.942C240.923 250.166 254.662 258.646 254.662 258.646" fill="black"/>
<path id="Vector_130" opacity="0.1" d="M330.555 242.934C330.555 242.934 312.351 246.354 308.952 250.996L330.555 242.934Z" fill="black"/>
<path id="Vector_131" d="M351.479 312.866H350.677C347.799 312.739 338.046 312.359 336.168 312.866C333.958 313.499 304.695 312.866 304.695 312.866L310.416 311.39C310.416 311.39 308.293 302.156 309.641 301.39C309.641 301.39 301.985 295.133 307.757 290.908C313.529 286.684 319.75 288.464 319.75 288.464L334.239 282.371L337.021 281.199C337.021 281.199 353.352 282.257 357.771 296.19C362.191 310.123 351.479 312.866 351.479 312.866Z" fill="#E7C7CA"/>
<path id="Vector_132" opacity="0.1" d="M351.479 312.866H350.677C355.429 308.002 366.177 293.195 334.239 282.403L337.021 281.231C337.021 281.231 353.352 282.289 357.771 296.222C362.191 310.155 351.479 312.866 351.479 312.866Z" fill="black"/>
<path id="Vector_133" d="M321.456 296.45C321.949 296.45 322.349 295.954 322.349 295.342C322.349 294.73 321.949 294.233 321.456 294.233C320.962 294.233 320.562 294.73 320.562 295.342C320.562 295.954 320.962 296.45 321.456 296.45Z" fill="#4B4B5B"/>
<path id="Vector_134" d="M316.265 298.28C316.758 298.28 317.158 297.784 317.158 297.172C317.158 296.56 316.758 296.063 316.265 296.063C315.772 296.063 315.372 296.56 315.372 297.172C315.372 297.784 315.772 298.28 316.265 298.28Z" fill="#4B4B5B"/>
<g id="Group" opacity="0.1">
<path id="Vector_135" opacity="0.1" d="M290.978 62.9593C291.176 55.9932 290.177 49.0545 288.048 42.604C281.414 43.8327 274.146 37.4804 268.104 41.2804C263.633 44.0924 262.23 51.1414 261.98 57.3543C261.919 58.9947 261.908 60.635 261.934 62.2753C261.934 61.6927 261.934 61.1037 261.98 60.521C262.215 54.308 263.618 47.259 268.104 44.447C274.146 40.647 281.404 46.9804 288.048 45.7707C289.851 51.2345 290.843 57.0576 290.978 62.9593Z" fill="black"/>
<path id="Vector_136" opacity="0.1" d="M239.566 61.8003C239.653 60.4203 239.631 59.033 239.499 57.6583C238.958 52.085 236.503 46.7587 236.059 41.3247C235.488 47.8797 238.851 54.175 239.499 60.825C239.566 61.167 239.566 61.471 239.566 61.8003Z" fill="black"/>
<path id="Vector_137" opacity="0.1" d="M266.456 118.636C266.139 123.335 265.246 128.357 262.373 131.473C259.5 134.589 254.207 134.418 252.61 130.15C252.1 128.883 252.023 127.407 251.528 126.141C250.395 123.24 247.609 122.113 245.174 120.979C238.259 117.768 231.589 111.479 230.104 102.479C229.971 101.664 229.881 100.839 229.833 100.009C229.708 101.895 229.799 103.792 230.104 105.646C231.589 114.62 238.269 120.935 245.174 124.146C247.609 125.279 250.395 126.407 251.528 129.307C252.038 130.574 252.125 132.037 252.61 133.316C254.218 137.585 259.52 137.75 262.373 134.64C265.226 131.53 266.114 126.502 266.456 121.802C266.611 119.329 266.664 116.847 266.614 114.367C266.614 115.805 266.548 117.223 266.456 118.636Z" fill="black"/>
<path id="Vector_138" opacity="0.1" d="M305.875 72.244C305.875 73.1623 305.875 74.0743 305.875 74.9863C306.16 63.2064 309.641 51.363 309.299 39.8301C309.034 50.4954 306.068 61.4014 305.875 72.244Z" fill="black"/>
<path id="Vector_139" opacity="0.1" d="M294.923 119.896C295.048 119.144 295.088 118.375 295.04 117.61C294.834 115.97 294.372 114.397 293.677 112.98C290.728 106.013 287.364 98.8819 286.966 91.1489C286.966 91.4783 286.931 91.7823 286.926 92.1369C286.721 100.712 290.452 108.559 293.677 116.147C294.226 117.322 294.644 118.583 294.923 119.896Z" fill="black"/>
<path id="Vector_140" opacity="0.1" d="M308.809 110.732C308.428 118.404 306.669 125.874 303.66 132.594C300.965 138.68 296.204 144.741 290.687 143.57C290.192 143.517 289.728 143.255 289.37 142.829C289.266 142.684 289.185 142.516 289.13 142.335C289.069 142.829 289.018 143.329 288.987 143.836C288.882 144.59 289.019 145.366 289.37 145.995C289.728 146.422 290.192 146.684 290.687 146.736C296.204 147.908 300.965 141.847 303.66 135.761C306.669 129.041 308.428 121.571 308.809 113.898C308.87 112.416 308.875 110.941 308.84 109.465C308.829 109.889 308.829 110.307 308.809 110.732Z" fill="black"/>
</g>
<path id="Vector_141" opacity="0.1" d="M309.641 301.39C309.641 301.39 322.557 308.116 331.075 293.232" stroke="black" stroke-miterlimit="10"/>
<path id="Vector_142" opacity="0.1" d="M312.182 313.144C312.182 313.144 322.731 304.632 336.168 312.866" stroke="black" stroke-miterlimit="10"/>
<path id="Vector_143" opacity="0.1" d="M241.571 311.213C241.571 311.213 246.001 298.812 257.831 308.268" stroke="black" stroke-miterlimit="10"/>
<path id="Vector_144" d="M229.507 219.551L231.91 227.575C231.91 227.575 235.483 231.375 239.392 229.475C243.301 227.575 246.71 226.631 248.41 224.782C250.109 222.933 252.493 213.642 252.493 213.642C252.493 213.642 254.876 203.508 257.254 200.975C259.632 198.442 265.93 163.539 257.254 166.953C248.578 170.366 241.944 202.033 241.944 202.033C241.944 202.033 240.413 204.351 238.203 204.566C235.993 204.781 231.568 204.142 230.716 206.466C229.864 208.79 226.955 214.908 229.507 219.551Z" fill="#BE6F72"/>
<g id="book">
<path id="Vector_145" d="M227.21 128.459L236.243 118.325C236.243 118.325 271.268 115.475 272.717 130.251C272.717 130.251 285.134 112.733 311.248 116.634L322.297 127.553L291.758 144.184L262.082 156.959L240.224 144.818L227.21 128.459Z" fill="#D5D6DB"/>
<path id="Vector_146" d="M223.214 128.459L227.21 187.783L269.569 190.424L267.732 131.353L267.696 130.359L223.214 128.459Z" fill="#0A1D37"/>
<path id="Vector_147" d="M324.237 127.192L280.541 135.324V194.914L323.241 187.257L324.237 127.192Z" fill="#0A1D37"/>
<path id="Vector_148" d="M280.541 135.318C278.304 135.943 275.98 135.911 273.754 135.222C271.529 134.534 269.465 133.209 267.726 131.353L269.568 190.418C269.568 190.418 273.906 196.244 280.541 194.914V135.318Z" fill="#0A1D37"/>
<path id="Vector_149" opacity="0.1" d="M281.562 128.661C281.562 128.661 299.337 121.916 303.971 122.866Z" fill="black"/>
<path id="Vector_150" opacity="0.1" d="M261.679 125.716C261.679 125.716 244.45 120.65 241.571 122.087Z" fill="black"/>
<path id="Vector_151" opacity="0.1" d="M292.769 129.504C292.769 129.504 304.655 124.095 308.952 126.666Z" fill="black"/>
</g>
<path id="Vector_152" opacity="0.1" d="M286.783 265.182C288.625 263.466 290.585 261.955 292.641 260.667C295.704 258.836 301.317 254.086 301.317 254.086" fill="black"/>
<path id="Vector_153" opacity="0.1" d="M241.571 200.551C241.571 200.551 234.115 208.119 231.875 208.784C229.634 209.449 228.251 215.352 228.251 215.352" fill="black"/>
<path id="Vector_154" d="M319.853 218.423L317.474 226.467C317.474 226.467 313.902 230.267 309.988 228.367C306.073 226.467 302.674 225.523 300.97 223.674C299.265 221.824 296.887 212.533 296.887 212.533C296.887 212.533 294.509 202.4 292.126 199.867C289.742 197.333 283.45 162.43 292.126 165.844C300.802 169.258 307.436 200.924 307.436 200.924C307.436 200.924 308.967 203.242 311.177 203.458C313.387 203.673 317.811 203.033 318.664 205.358C319.516 207.682 322.404 213.8 319.853 218.423Z" fill="#BE6F72"/>
<path id="Vector_155" opacity="0.1" d="M315.684 203.629C315.684 203.629 320.557 207.518 320.537 212.166L315.684 203.629Z" fill="black"/>
<path id="Vector_156" d="M274.33 90.9085C286.921 90.9085 297.127 78.2422 297.127 62.6176C297.127 46.9929 286.921 34.3267 274.33 34.3267C261.74 34.3267 251.533 46.9929 251.533 62.6176C251.533 78.2422 261.74 90.9085 274.33 90.9085Z" fill="#BE6F72"/>
<path id="Vector_157" d="M260.015 55.0239C262.781 54.4856 265.205 52.4906 267.849 51.3443C273.764 48.7666 280.306 50.5336 286.292 52.8579C288.589 53.7509 290.921 54.7579 293.33 54.7579C295.739 54.7579 298.296 53.5356 299.526 50.9579C300.659 48.5893 300.439 45.5113 299.485 43.0223C298.53 40.5333 296.933 38.532 295.32 36.6446C290.013 30.4253 283.429 24.6113 276.147 25.2447C273.217 25.5043 270.416 26.8027 267.721 28.2403C264.328 30.0548 261.025 32.1189 257.831 34.4216C255.376 36.1886 250.829 38.551 249.415 41.781C246.2 49.0579 255.013 55.9993 260.015 55.0239Z" fill="#3E373A"/>
<path id="Vector_158" opacity="0.1" d="M299.526 48.298C298.296 50.8756 295.739 52.098 293.33 52.098C290.921 52.098 288.589 51.129 286.287 50.236C280.301 47.9116 273.764 46.1383 267.844 48.7223C265.205 49.8686 262.776 51.889 260.01 52.3956C255.978 53.181 249.487 48.8236 248.782 43.282C247.991 49.685 255.519 55.1696 260.01 54.2956C262.776 53.7573 265.205 51.7623 267.844 50.6223C273.764 48.0383 280.301 49.8116 286.287 52.136C288.589 53.029 290.916 54.0359 293.33 53.9979C295.744 53.9599 298.296 52.782 299.526 50.198C300.163 48.7922 300.414 47.1669 300.24 45.5683C300.161 46.5307 299.917 47.4612 299.526 48.298Z" fill="black"/>
<path id="Vector_159" d="M484.531 391.532C484.531 391.532 487.557 396.441 483.132 403.857C478.708 411.273 475.064 417.53 476.534 422.154C476.534 422.154 483.209 408.385 488.639 408.189C494.069 407.992 490.497 399.81 484.531 391.532Z" fill="#0A1D37"/>
<path id="Vector_160" opacity="0.1" d="M484.531 391.532C484.794 392.006 485.002 392.525 485.148 393.071C490.446 400.798 493.273 408.011 488.175 408.189C483.428 408.36 477.738 418.892 476.375 421.546C476.419 421.76 476.472 421.972 476.534 422.179C476.534 422.179 483.209 408.41 488.639 408.214C494.069 408.018 490.497 399.81 484.531 391.532Z" fill="black"/>
<path id="Vector_161" d="M490.144 397.789C490.144 399.518 489.986 400.918 489.797 400.918C489.609 400.918 489.445 399.518 489.445 397.789C489.445 396.06 489.639 396.877 489.833 396.877C490.027 396.877 490.144 396.06 490.144 397.789Z" fill="#FFD037"/>
<path id="Vector_162" d="M492.078 399.854C490.859 400.678 489.792 401.178 489.7 400.969C489.608 400.76 490.522 399.918 491.742 399.069C492.961 398.22 492.482 398.841 492.573 399.069C492.665 399.297 493.303 399.025 492.078 399.854Z" fill="#FFD037"/>
<path id="Vector_163" d="M468.537 391.532C468.537 391.532 465.51 396.441 469.935 403.857C474.36 411.273 478.004 417.53 476.529 422.154C476.529 422.154 469.858 408.385 464.423 408.189C458.988 407.992 462.586 399.81 468.537 391.532Z" fill="#0A1D37"/>
<path id="Vector_164" opacity="0.1" d="M468.537 391.532C468.273 392.006 468.065 392.525 467.919 393.071C462.622 400.798 459.794 408.011 464.893 408.189C469.634 408.36 475.329 418.892 476.692 421.546C476.649 421.761 476.595 421.973 476.529 422.179C476.529 422.179 469.858 408.41 464.423 408.214C458.988 408.018 462.586 399.81 468.537 391.532Z" fill="black"/>
<path id="Vector_165" d="M462.912 397.789C462.912 399.518 463.065 400.918 463.259 400.918C463.453 400.918 463.611 399.518 463.611 397.789C463.611 396.06 463.412 396.877 463.223 396.877C463.035 396.877 462.912 396.06 462.912 397.789Z" fill="#FFD037"/>
<path id="Vector_166" d="M460.983 399.854C462.203 400.678 463.27 401.178 463.362 400.969C463.453 400.76 462.54 399.918 461.32 399.069C460.101 398.22 460.58 398.841 460.488 399.069C460.397 399.297 459.759 399.025 460.983 399.854Z" fill="#FFD037"/>
<path id="Vector_167" opacity="0.1" d="M476.533 459.723C494.008 459.723 508.175 457.026 508.175 453.7C508.175 450.373 494.008 447.677 476.533 447.677C459.058 447.677 444.892 450.373 444.892 453.7C444.892 457.026 459.058 459.723 476.533 459.723Z" fill="#0A1D37"/>
<path id="Vector_168" d="M492.818 415.535L492.665 417.068L492.451 419.234L492.364 420.14L492.15 422.306L492.058 423.211L491.849 425.371L489.424 450.008C489.21 452.205 486.317 453.922 482.821 453.922H470.241C466.745 453.922 463.856 452.205 463.637 450.008L461.213 425.371L460.998 423.211L460.912 422.306L460.697 420.14L460.605 419.234L460.396 417.068L460.243 415.535C460.126 414.269 461.687 413.243 463.667 413.243H489.399C491.374 413.243 492.941 414.288 492.818 415.535Z" fill="#65617D"/>
<path id="Vector_169" d="M492.665 417.068L492.456 419.234H460.611L460.396 417.068H492.665Z" fill="#9D9CB5"/>
<path id="Vector_170" d="M492.364 420.14L492.155 422.306H460.912L460.697 420.14H492.364Z" fill="#9D9CB5"/>
<path id="Vector_171" d="M492.063 423.211L491.849 425.377H461.213L461.004 423.211H492.063Z" fill="#9D9CB5"/>
</g>
<defs>
<linearGradient id="paint0_linear" x1="278.975" y1="317.882" x2="278.975" y2="0.00010811" gradientUnits="userSpaceOnUse">
<stop stop-color="#808080" stop-opacity="0.25"/>
<stop offset="0.54" stop-color="#808080" stop-opacity="0.12"/>
<stop offset="1" stop-color="#808080" stop-opacity="0.1"/>
</linearGradient>
<clipPath id="clip0">
<rect width="522" height="515" fill="white"/>
</clipPath>
</defs>
</svg>
